# Blender 3.5.0
# www.blender.org
mtllib fence.mtl
o Cube
v -16.564871 -1.972892 0.210753
v -16.564871 5.027108 0.210753
v -16.564871 -1.972892 -0.210753
v -16.564871 5.027108 -0.210753
v -16.127028 -1.972892 0.210753
v -16.127028 5.027108 0.210753
v -16.127028 -1.972892 -0.210753
v -16.127028 5.027108 -0.210753
vn -1.0000 -0.0000 -0.0000
vn -0.0000 -0.0000 -1.0000
vn 1.0000 -0.0000 -0.0000
vn -0.0000 -0.0000 1.0000
vn -0.0000 -1.0000 -0.0000
vn -0.0000 1.0000 -0.0000
vt 0.375000 0.000000
vt 0.375000 1.000000
vt 0.125000 0.750000
vt 0.625000 0.000000
vt 0.625000 1.000000
vt 0.875000 0.750000
vt 0.125000 0.500000
vt 0.375000 0.250000
vt 0.625000 0.250000
vt 0.875000 0.500000
vt 0.375000 0.750000
vt 0.625000 0.750000
vt 0.375000 0.500000
vt 0.625000 0.500000
s 0
g off
f 2/4/1 3/8/1 1/1/1
f 4/9/2 7/13/2 3/8/2
f 8/14/3 5/11/3 7/13/3
f 6/12/4 1/2/4 5/11/4
f 7/13/5 1/3/5 3/7/5
f 4/10/6 6/12/6 8/14/6
f 2/4/1 4/9/1 3/8/1
f 4/9/2 8/14/2 7/13/2
f 8/14/3 6/12/3 5/11/3
f 6/12/4 2/5/4 1/2/4
f 7/13/5 5/11/5 1/3/5
f 4/10/6 2/6/6 6/12/6
o Cube.001
v -16.329138 -1.972893 -15.458388
v -16.329138 5.027107 -15.458388
v -16.329138 -1.972893 -15.879893
v -16.329138 5.027107 -15.879893
v -15.891295 -1.972893 -15.458388
v -15.891295 5.027107 -15.458388
v -15.891295 -1.972893 -15.879893
v -15.891295 5.027107 -15.879893
vn -1.0000 -0.0000 -0.0000
vn -0.0000 -0.0000 -1.0000
vn 1.0000 -0.0000 -0.0000
vn -0.0000 -0.0000 1.0000
vn -0.0000 -1.0000 -0.0000
vn -0.0000 1.0000 -0.0000
vt 0.375000 0.000000
vt 0.375000 1.000000
vt 0.125000 0.750000
vt 0.625000 0.000000
vt 0.625000 1.000000
vt 0.875000 0.750000
vt 0.125000 0.500000
vt 0.375000 0.250000
vt 0.625000 0.250000
vt 0.875000 0.500000
vt 0.375000 0.750000
vt 0.625000 0.750000
vt 0.375000 0.500000
vt 0.625000 0.500000
s 0
g off
f 10/18/7 11/22/7 9/15/7
f 12/23/8 15/27/8 11/22/8
f 16/28/9 13/25/9 15/27/9
f 14/26/10 9/16/10 13/25/10
f 15/27/11 9/17/11 11/21/11
f 12/24/12 14/26/12 16/28/12
f 10/18/7 12/23/7 11/22/7
f 12/23/8 16/28/8 15/27/8
f 16/28/9 14/26/9 13/25/9
f 14/26/10 10/19/10 9/16/10
f 15/27/11 13/25/11 9/17/11
f 12/24/12 10/20/12 14/26/12
o Cube.002
v -16.329138 -1.972891 15.939344
v -16.329138 5.027110 15.939344
v -16.329138 -1.972891 15.517839
v -16.329138 5.027109 15.517839
v -15.891295 -1.972891 15.939344
v -15.891295 5.027110 15.939344
v -15.891295 -1.972891 15.517839
v -15.891295 5.027109 15.517839
vn -1.0000 -0.0000 -0.0000
vn -0.0000 -0.0000 -1.0000
vn 1.0000 -0.0000 -0.0000
vn -0.0000 -0.0000 1.0000
vn -0.0000 -1.0000 -0.0000
vn -0.0000 1.0000 -0.0000
vt 0.375000 0.000000
vt 0.375000 1.000000
vt 0.125000 0.750000
vt 0.625000 0.000000
vt 0.625000 1.000000
vt 0.875000 0.750000
vt 0.125000 0.500000
vt 0.375000 0.250000
vt 0.625000 0.250000
vt 0.875000 0.500000
vt 0.375000 0.750000
vt 0.625000 0.750000
vt 0.375000 0.500000
vt 0.625000 0.500000
s 0
g off
f 18/32/13 19/36/13 17/29/13
f 20/37/14 23/41/14 19/36/14
f 24/42/15 21/39/15 23/41/15
f 22/40/16 17/30/16 21/39/16
f 23/41/17 17/31/17 19/35/17
f 20/38/18 22/40/18 24/42/18
f 18/32/13 20/37/13 19/36/13
f 20/37/14 24/42/14 23/41/14
f 24/42/15 22/40/15 21/39/15
f 22/40/16 18/33/16 17/30/16
f 23/41/17 21/39/17 17/31/17
f 20/38/18 18/34/18 22/40/18
o Cube.003
v -16.329138 1.289473 15.963380
v -16.329138 1.289470 -15.894900
v -16.329138 0.867968 15.963380
v -16.329138 0.867965 -15.894900
v -15.891295 1.289473 15.963380
v -15.891295 1.289470 -15.894900
v -15.891295 0.867968 15.963380
v -15.891295 0.867965 -15.894900
vn -1.0000 -0.0000 -0.0000
vn -0.0000 -1.0000 -0.0000
vn 1.0000 -0.0000 -0.0000
vn -0.0000 1.0000 -0.0000
vn -0.0000 -0.0000 1.0000
vn -0.0000 -0.0000 -1.0000
vt 0.375000 0.000000
vt 0.375000 1.000000
vt 0.125000 0.750000
vt 0.625000 0.000000
vt 0.625000 1.000000
vt 0.875000 0.750000
vt 0.125000 0.500000
vt 0.375000 0.250000
vt 0.625000 0.250000
vt 0.875000 0.500000
vt 0.375000 0.750000
vt 0.625000 0.750000
vt 0.375000 0.500000
vt 0.625000 0.500000
s 0
g off
f 26/46/19 27/50/19 25/43/19
f 28/51/20 31/55/20 27/50/20
f 32/56/21 29/53/21 31/55/21
f 30/54/22 25/44/22 29/53/22
f 31/55/23 25/45/23 27/49/23
f 28/52/24 30/54/24 32/56/24
f 26/46/19 28/51/19 27/50/19
f 28/51/20 32/56/20 31/55/20
f 32/56/21 30/54/21 29/53/21
f 30/54/22 26/47/22 25/44/22
f 31/55/23 29/53/23 25/45/23
f 28/52/24 26/48/24 30/54/24
o Cube.004
v -16.329138 2.532880 15.963380
v -16.329138 2.532877 -15.894900
v -16.329138 2.111375 15.963380
v -16.329138 2.111371 -15.894900
v -15.891295 2.532880 15.963380
v -15.891295 2.532877 -15.894900
v -15.891295 2.111375 15.963380
v -15.891295 2.111371 -15.894900
vn -1.0000 -0.0000 -0.0000
vn -0.0000 -1.0000 -0.0000
vn 1.0000 -0.0000 -0.0000
vn -0.0000 1.0000 -0.0000
vn -0.0000 -0.0000 1.0000
vn -0.0000 -0.0000 -1.0000
vt 0.375000 0.000000
vt 0.375000 1.000000
vt 0.125000 0.750000
vt 0.625000 0.000000
vt 0.625000 1.000000
vt 0.875000 0.750000
vt 0.125000 0.500000
vt 0.375000 0.250000
vt 0.625000 0.250000
vt 0.875000 0.500000
vt 0.375000 0.750000
vt 0.625000 0.750000
vt 0.375000 0.500000
vt 0.625000 0.500000
s 0
g off
f 34/60/25 35/64/25 33/57/25
f 36/65/26 39/69/26 35/64/26
f 40/70/27 37/67/27 39/69/27
f 38/68/28 33/58/28 37/67/28
f 39/69/29 33/59/29 35/63/29
f 36/66/30 38/68/30 40/70/30
f 34/60/25 36/65/25 35/64/25
f 36/65/26 40/70/26 39/69/26
f 40/70/27 38/68/27 37/67/27
f 38/68/28 34/61/28 33/58/28
f 39/69/29 37/67/29 33/59/29
f 36/66/30 34/62/30 38/68/30
o Cube.005
v -16.329138 3.834446 15.963380
v -16.329138 3.834443 -15.894900
v -16.329138 3.412941 15.963380
v -16.329138 3.412937 -15.894900
v -15.891295 3.834446 15.963380
v -15.891295 3.834443 -15.894900
v -15.891295 3.412941 15.963380
v -15.891295 3.412937 -15.894900
vn -1.0000 -0.0000 -0.0000
vn -0.0000 -1.0000 -0.0000
vn 1.0000 -0.0000 -0.0000
vn -0.0000 1.0000 -0.0000
vn -0.0000 -0.0000 1.0000
vn -0.0000 -0.0000 -1.0000
vt 0.375000 0.000000
vt 0.375000 1.000000
vt 0.125000 0.750000
vt 0.625000 0.000000
vt 0.625000 1.000000
vt 0.875000 0.750000
vt 0.125000 0.500000
vt 0.375000 0.250000
vt 0.625000 0.250000
vt 0.875000 0.500000
vt 0.375000 0.750000
vt 0.625000 0.750000
vt 0.375000 0.500000
vt 0.625000 0.500000
s 0
g off
f 42/74/31 43/78/31 41/71/31
f 44/79/32 47/83/32 43/78/32
f 48/84/33 45/81/33 47/83/33
f 46/82/34 41/72/34 45/81/34
f 47/83/35 41/73/35 43/77/35
f 44/80/36 46/82/36 48/84/36
f 42/74/31 44/79/31 43/78/31
f 44/79/32 48/84/32 47/83/32
f 48/84/33 46/82/33 45/81/33
f 46/82/34 42/75/34 41/72/34
f 47/83/35 45/81/35 41/73/35
f 44/80/36 42/76/36 46/82/36
o Cube.006
v -15.889683 3.834446 15.343214
v 15.968491 3.834445 15.260621
v -15.889683 3.412941 15.343214
v 15.968491 3.412939 15.260621
v -15.888548 3.834446 15.781054
v 15.969625 3.834445 15.698462
v -15.888548 3.412941 15.781054
v 15.969625 3.412939 15.698462
vn -0.0026 -0.0000 -1.0000
vn -0.0000 -1.0000 -0.0000
vn 0.0026 -0.0000 1.0000
vn -0.0000 1.0000 -0.0000
vn -1.0000 -0.0000 0.0026
vn 1.0000 -0.0000 -0.0026
vt 0.375000 0.000000
vt 0.375000 1.000000
vt 0.125000 0.750000
vt 0.625000 0.000000
vt 0.625000 1.000000
vt 0.875000 0.750000
vt 0.125000 0.500000
vt 0.375000 0.250000
vt 0.625000 0.250000
vt 0.875000 0.500000
vt 0.375000 0.750000
vt 0.625000 0.750000
vt 0.375000 0.500000
vt 0.625000 0.500000
s 0
g off
f 50/88/37 51/92/37 49/85/37
f 52/93/38 55/97/38 51/92/38
f 56/98/39 53/95/39 55/97/39
f 54/96/40 49/86/40 53/95/40
f 55/97/41 49/87/41 51/91/41
f 52/94/42 54/96/42 56/98/42
f 50/88/37 52/93/37 51/92/37
f 52/93/38 56/98/38 55/97/38
f 56/98/39 54/96/39 53/95/39
f 54/96/40 50/89/40 49/86/40
f 55/97/41 53/95/41 49/87/41
f 52/94/42 50/90/42 54/96/42
o Cube.007
v -15.889683 2.532880 15.343214
v 15.968491 2.532879 15.260621
v -15.889683 2.111375 15.343214
v 15.968491 2.111373 15.260621
v -15.888548 2.532880 15.781054
v 15.969625 2.532879 15.698462
v -15.888548 2.111375 15.781054
v 15.969625 2.111373 15.698462
vn -0.0026 -0.0000 -1.0000
vn -0.0000 -1.0000 -0.0000
vn 0.0026 -0.0000 1.0000
vn -0.0000 1.0000 -0.0000
vn -1.0000 -0.0000 0.0026
vn 1.0000 -0.0000 -0.0026
vt 0.375000 0.000000
vt 0.375000 1.000000
vt 0.125000 0.750000
vt 0.625000 0.000000
vt 0.625000 1.000000
vt 0.875000 0.750000
vt 0.125000 0.500000
vt 0.375000 0.250000
vt 0.625000 0.250000
vt 0.875000 0.500000
vt 0.375000 0.750000
vt 0.625000 0.750000
vt 0.375000 0.500000
vt 0.625000 0.500000
s 0
g off
f 58/102/43 59/106/43 57/99/43
f 60/107/44 63/111/44 59/106/44
f 64/112/45 61/109/45 63/111/45
f 62/110/46 57/100/46 61/109/46
f 63/111/47 57/101/47 59/105/47
f 60/108/48 62/110/48 64/112/48
f 58/102/43 60/107/43 59/106/43
f 60/107/44 64/112/44 63/111/44
f 64/112/45 62/110/45 61/109/45
f 62/110/46 58/103/46 57/100/46
f 63/111/47 61/109/47 57/101/47
f 60/108/48 58/104/48 62/110/48
o Cube.008
v -15.889683 1.289473 15.343214
v 15.968491 1.289472 15.260621
v -15.889683 0.867968 15.343214
v 15.968491 0.867967 15.260621
v -15.888548 1.289473 15.781054
v 15.969625 1.289472 15.698462
v -15.888548 0.867968 15.781054
v 15.969625 0.867967 15.698462
vn -0.0026 -0.0000 -1.0000
vn -0.0000 -1.0000 -0.0000
vn 0.0026 -0.0000 1.0000
vn -0.0000 1.0000 -0.0000
vn -1.0000 -0.0000 0.0026
vn 1.0000 -0.0000 -0.0026
vt 0.375000 0.000000
vt 0.375000 1.000000
vt 0.125000 0.750000
vt 0.625000 0.000000
vt 0.625000 1.000000
vt 0.875000 0.750000
vt 0.125000 0.500000
vt 0.375000 0.250000
vt 0.625000 0.250000
vt 0.875000 0.500000
vt 0.375000 0.750000
vt 0.625000 0.750000
vt 0.375000 0.500000
vt 0.625000 0.500000
s 0
g off
f 66/116/49 67/120/49 65/113/49
f 68/121/50 71/125/50 67/120/50
f 72/126/51 69/123/51 71/125/51
f 70/124/52 65/114/52 69/123/52
f 71/125/53 65/115/53 67/119/53
f 68/122/54 70/124/54 72/126/54
f 66/116/49 68/121/49 67/120/49
f 68/121/50 72/126/50 71/125/50
f 72/126/51 70/124/51 69/123/51
f 70/124/52 66/117/52 65/114/52
f 71/125/53 69/123/53 65/115/53
f 68/122/54 66/118/54 70/124/54
o Cube.009
v 15.752983 1.289471 -15.604249
v -16.099310 1.289470 -14.986644
v 15.752983 0.867966 -15.604249
v -16.099310 0.867965 -14.986644
v 15.744495 1.289471 -16.042009
v -16.107798 1.289470 -15.424403
v 15.744495 0.867966 -16.042009
v -16.107798 0.867965 -15.424403
vn 0.0194 -0.0000 0.9998
vn -0.0000 -1.0000 -0.0000
vn -0.0194 -0.0000 -0.9998
vn -0.0000 1.0000 -0.0000
vn 0.9998 -0.0000 -0.0194
vn -0.9998 -0.0000 0.0194
vt 0.375000 0.000000
vt 0.375000 1.000000
vt 0.125000 0.750000
vt 0.625000 0.000000
vt 0.625000 1.000000
vt 0.875000 0.750000
vt 0.125000 0.500000
vt 0.375000 0.250000
vt 0.625000 0.250000
vt 0.875000 0.500000
vt 0.375000 0.750000
vt 0.625000 0.750000
vt 0.375000 0.500000
vt 0.625000 0.500000
s 0
g off
f 74/130/55 75/134/55 73/127/55
f 76/135/56 79/139/56 75/134/56
f 80/140/57 77/137/57 79/139/57
f 78/138/58 73/128/58 77/137/58
f 79/139/59 73/129/59 75/133/59
f 76/136/60 78/138/60 80/140/60
f 74/130/55 76/135/55 75/134/55
f 76/135/56 80/140/56 79/139/56
f 80/140/57 78/138/57 77/137/57
f 78/138/58 74/131/58 73/128/58
f 79/139/59 77/137/59 73/129/59
f 76/136/60 74/132/60 78/138/60
o Cube.010
v 15.531978 -1.972891 15.261749
v 15.531978 5.027109 15.261749
v 15.953482 -1.972891 15.260657
v 15.953482 5.027109 15.260657
v 15.533113 -1.972891 15.699590
v 15.533113 5.027109 15.699590
v 15.954618 -1.972891 15.698498
v 15.954618 5.027109 15.698498
vn -0.0026 -0.0000 -1.0000
vn 1.0000 -0.0000 -0.0026
vn 0.0026 -0.0000 1.0000
vn -1.0000 -0.0000 0.0026
vn -0.0000 -1.0000 -0.0000
vn -0.0000 1.0000 -0.0000
vt 0.375000 0.000000
vt 0.375000 1.000000
vt 0.125000 0.750000
vt 0.625000 0.000000
vt 0.625000 1.000000
vt 0.875000 0.750000
vt 0.125000 0.500000
vt 0.375000 0.250000
vt 0.625000 0.250000
vt 0.875000 0.500000
vt 0.375000 0.750000
vt 0.625000 0.750000
vt 0.375000 0.500000
vt 0.625000 0.500000
s 0
g off
f 82/144/61 83/148/61 81/141/61
f 84/149/62 87/153/62 83/148/62
f 88/154/63 85/151/63 87/153/63
f 86/152/64 81/142/64 85/151/64
f 87/153/65 81/143/65 83/147/65
f 84/150/66 86/152/66 88/154/66
f 82/144/61 84/149/61 83/148/61
f 84/149/62 88/154/62 87/153/62
f 88/154/63 86/152/63 85/151/63
f 86/152/64 82/145/64 81/142/64
f 87/153/65 85/151/65 81/143/65
f 84/150/66 82/146/66 86/152/66
o Cube.011
v 15.752983 2.532878 -15.604249
v -16.099310 2.532877 -14.986644
v 15.752983 2.111373 -15.604249
v -16.099310 2.111371 -14.986644
v 15.744495 2.532878 -16.042009
v -16.107798 2.532877 -15.424403
v 15.744495 2.111373 -16.042009
v -16.107798 2.111371 -15.424403
vn 0.0194 -0.0000 0.9998
vn -0.0000 -1.0000 -0.0000
vn -0.0194 -0.0000 -0.9998
vn -0.0000 1.0000 -0.0000
vn 0.9998 -0.0000 -0.0194
vn -0.9998 -0.0000 0.0194
vt 0.375000 0.000000
vt 0.375000 1.000000
vt 0.125000 0.750000
vt 0.625000 0.000000
vt 0.625000 1.000000
vt 0.875000 0.750000
vt 0.125000 0.500000
vt 0.375000 0.250000
vt 0.625000 0.250000
vt 0.875000 0.500000
vt 0.375000 0.750000
vt 0.625000 0.750000
vt 0.375000 0.500000
vt 0.625000 0.500000
s 0
g off
f 90/158/67 91/162/67 89/155/67
f 92/163/68 95/167/68 91/162/68
f 96/168/69 93/165/69 95/167/69
f 94/166/70 89/156/70 93/165/70
f 95/167/71 89/157/71 91/161/71
f 92/164/72 94/166/72 96/168/72
f 90/158/67 92/163/67 91/162/67
f 92/163/68 96/168/68 95/167/68
f 96/168/69 94/166/69 93/165/69
f 94/166/70 90/159/70 89/156/70
f 95/167/71 93/165/71 89/157/71
f 92/164/72 90/160/72 94/166/72
o Cube.012
v 15.752983 3.834444 -15.604249
v -16.099310 3.834443 -14.986644
v 15.752983 3.412939 -15.604249
v -16.099310 3.412937 -14.986644
v 15.744495 3.834444 -16.042009
v -16.107798 3.834443 -15.424403
v 15.744495 3.412939 -16.042009
v -16.107798 3.412937 -15.424403
vn 0.0194 -0.0000 0.9998
vn -0.0000 -1.0000 -0.0000
vn -0.0194 -0.0000 -0.9998
vn -0.0000 1.0000 -0.0000
vn 0.9998 -0.0000 -0.0194
vn -0.9998 -0.0000 0.0194
vt 0.375000 0.000000
vt 0.375000 1.000000
vt 0.125000 0.750000
vt 0.625000 0.000000
vt 0.625000 1.000000
vt 0.875000 0.750000
vt 0.125000 0.500000
vt 0.375000 0.250000
vt 0.625000 0.250000
vt 0.875000 0.500000
vt 0.375000 0.750000
vt 0.625000 0.750000
vt 0.375000 0.500000
vt 0.625000 0.500000
s 0
g off
f 98/172/73 99/176/73 97/169/73
f 100/177/74 103/181/74 99/176/74
f 104/182/75 101/179/75 103/181/75
f 102/180/76 97/170/76 101/179/76
f 103/181/77 97/171/77 99/175/77
f 100/178/78 102/180/78 104/182/78
f 98/172/73 100/177/73 99/176/73
f 100/177/74 104/182/74 103/181/74
f 104/182/75 102/180/75 101/179/75
f 102/180/76 98/173/76 97/170/76
f 103/181/77 101/179/77 97/171/77
f 100/178/78 98/174/78 102/180/78
o Cube.013
v 16.173185 3.834444 -16.229298
v 16.046776 3.834445 15.628734
v 16.173185 3.412939 -16.229298
v 16.046776 3.412939 15.628734
v 15.735347 3.834444 -16.231033
v 15.608938 3.834445 15.626996
v 15.735347 3.412939 -16.231033
v 15.608938 3.412939 15.626996
vn 1.0000 -0.0000 0.0040
vn -0.0000 -1.0000 -0.0000
vn -1.0000 -0.0000 -0.0040
vn -0.0000 1.0000 -0.0000
vn 0.0040 -0.0000 -1.0000
vn -0.0040 -0.0000 1.0000
vt 0.375000 0.000000
vt 0.375000 1.000000
vt 0.125000 0.750000
vt 0.625000 0.000000
vt 0.625000 1.000000
vt 0.875000 0.750000
vt 0.125000 0.500000
vt 0.375000 0.250000
vt 0.625000 0.250000
vt 0.875000 0.500000
vt 0.375000 0.750000
vt 0.625000 0.750000
vt 0.375000 0.500000
vt 0.625000 0.500000
s 0
g off
f 106/186/79 107/190/79 105/183/79
f 108/191/80 111/195/80 107/190/80
f 112/196/81 109/193/81 111/195/81
f 110/194/82 105/184/82 109/193/82
f 111/195/83 105/185/83 107/189/83
f 108/192/84 110/194/84 112/196/84
f 106/186/79 108/191/79 107/190/79
f 108/191/80 112/196/80 111/195/80
f 112/196/81 110/194/81 109/193/81
f 110/194/82 106/187/82 105/184/82
f 111/195/83 109/193/83 105/185/83
f 108/192/84 106/188/84 110/194/84
o Cube.014
v 16.173185 2.532878 -16.229298
v 16.046776 2.532879 15.628734
v 16.173185 2.111373 -16.229298
v 16.046776 2.111373 15.628734
v 15.735347 2.532878 -16.231033
v 15.608938 2.532879 15.626996
v 15.735347 2.111373 -16.231033
v 15.608938 2.111373 15.626996
vn 1.0000 -0.0000 0.0040
vn -0.0000 -1.0000 -0.0000
vn -1.0000 -0.0000 -0.0040
vn -0.0000 1.0000 -0.0000
vn 0.0040 -0.0000 -1.0000
vn -0.0040 -0.0000 1.0000
vt 0.375000 0.000000
vt 0.375000 1.000000
vt 0.125000 0.750000
vt 0.625000 0.000000
vt 0.625000 1.000000
vt 0.875000 0.750000
vt 0.125000 0.500000
vt 0.375000 0.250000
vt 0.625000 0.250000
vt 0.875000 0.500000
vt 0.375000 0.750000
vt 0.625000 0.750000
vt 0.375000 0.500000
vt 0.625000 0.500000
s 0
g off
f 114/200/85 115/204/85 113/197/85
f 116/205/86 119/209/86 115/204/86
f 120/210/87 117/207/87 119/209/87
f 118/208/88 113/198/88 117/207/88
f 119/209/89 113/199/89 115/203/89
f 116/206/90 118/208/90 120/210/90
f 114/200/85 116/205/85 115/204/85
f 116/205/86 120/210/86 119/209/86
f 120/210/87 118/208/87 117/207/87
f 118/208/88 114/201/88 113/198/88
f 119/209/89 117/207/89 113/199/89
f 116/206/90 114/202/90 118/208/90
o Cube.015
v 16.173185 1.289471 -16.229298
v 16.046776 1.289472 15.628734
v 16.173185 0.867966 -16.229298
v 16.046776 0.867967 15.628734
v 15.735347 1.289471 -16.231033
v 15.608938 1.289472 15.626996
v 15.735347 0.867966 -16.231033
v 15.608938 0.867967 15.626996
vn 1.0000 -0.0000 0.0040
vn -0.0000 -1.0000 -0.0000
vn -1.0000 -0.0000 -0.0040
vn -0.0000 1.0000 -0.0000
vn 0.0040 -0.0000 -1.0000
vn -0.0040 -0.0000 1.0000
vt 0.375000 0.000000
vt 0.375000 1.000000
vt 0.125000 0.750000
vt 0.625000 0.000000
vt 0.625000 1.000000
vt 0.875000 0.750000
vt 0.125000 0.500000
vt 0.375000 0.250000
vt 0.625000 0.250000
vt 0.875000 0.500000
vt 0.375000 0.750000
vt 0.625000 0.750000
vt 0.375000 0.500000
vt 0.625000 0.500000
s 0
g off
f 122/214/91 123/218/91 121/211/91
f 124/219/92 127/223/92 123/218/92
f 128/224/93 125/221/93 127/223/93
f 126/222/94 121/212/94 125/221/94
f 127/223/95 121/213/95 123/217/95
f 124/220/96 126/222/96 128/224/96
f 122/214/91 124/219/91 123/218/91
f 124/219/92 128/224/92 127/223/92
f 128/224/93 126/222/93 125/221/93
f 126/222/94 122/215/94 121/212/94
f 127/223/95 125/221/95 121/213/95
f 124/220/96 122/216/96 126/222/96
o Cube.016
v 16.182365 -1.972893 -16.207687
v 16.182365 5.027107 -16.207687
v 16.189445 -1.972893 -15.786242
v 16.189445 5.027107 -15.786242
v 15.744586 -1.972893 -16.200335
v 15.744586 5.027107 -16.200335
v 15.751665 -1.972893 -15.778889
v 15.751665 5.027107 -15.778889
vn 0.9999 -0.0000 -0.0168
vn 0.0168 -0.0000 0.9999
vn -0.9999 -0.0000 0.0168
vn -0.0168 -0.0000 -0.9999
vn -0.0000 -1.0000 -0.0000
vn -0.0000 1.0000 -0.0000
vt 0.375000 0.000000
vt 0.375000 1.000000
vt 0.125000 0.750000
vt 0.625000 0.000000
vt 0.625000 1.000000
vt 0.875000 0.750000
vt 0.125000 0.500000
vt 0.375000 0.250000
vt 0.625000 0.250000
vt 0.875000 0.500000
vt 0.375000 0.750000
vt 0.625000 0.750000
vt 0.375000 0.500000
vt 0.625000 0.500000
s 0
g off
f 130/228/97 131/232/97 129/225/97
f 132/233/98 135/237/98 131/232/98
f 136/238/99 133/235/99 135/237/99
f 134/236/100 129/226/100 133/235/100
f 135/237/101 129/227/101 131/231/101
f 132/234/102 134/236/102 136/238/102
f 130/228/97 132/233/97 131/232/97
f 132/233/98 136/238/98 135/237/98
f 136/238/99 134/236/99 133/235/99
f 134/236/100 130/229/100 129/226/100
f 135/237/101 133/235/101 129/227/101
f 132/234/102 130/230/102 134/236/102
o Cube.017
v 15.761843 -1.970537 0.274116
v 15.761843 5.029463 0.274115
v 15.761843 -1.970537 -0.147390
v 15.761843 5.029463 -0.147391
v 16.199684 -1.970537 0.274116
v 16.199684 5.029463 0.274115
v 16.199684 -1.970537 -0.147390
v 16.199684 5.029463 -0.147391
vn -1.0000 -0.0000 -0.0000
vn -0.0000 -0.0000 -1.0000
vn 1.0000 -0.0000 -0.0000
vn -0.0000 -0.0000 1.0000
vn -0.0000 -1.0000 -0.0000
vn -0.0000 1.0000 -0.0000
vt 0.375000 0.000000
vt 0.375000 1.000000
vt 0.125000 0.750000
vt 0.625000 0.000000
vt 0.625000 1.000000
vt 0.875000 0.750000
vt 0.125000 0.500000
vt 0.375000 0.250000
vt 0.625000 0.250000
vt 0.875000 0.500000
vt 0.375000 0.750000
vt 0.625000 0.750000
vt 0.375000 0.500000
vt 0.625000 0.500000
s 0
g off
f 138/242/103 139/246/103 137/239/103
f 140/247/104 143/251/104 139/246/104
f 144/252/105 141/249/105 143/251/105
f 142/250/106 137/240/106 141/249/106
f 143/251/107 137/241/107 139/245/107
f 140/248/108 142/250/108 144/252/108
f 138/242/103 140/247/103 139/246/103
f 140/247/104 144/252/104 143/251/104
f 144/252/105 142/250/105 141/249/105
f 142/250/106 138/243/106 137/240/106
f 143/251/107 141/249/107 137/241/107
f 140/248/108 138/244/108 142/250/108
o Cube.018
v -0.093798 -1.972892 -15.345337
v -0.093798 5.027108 -15.345338
v -0.093798 -1.972892 -15.766843
v -0.093798 5.027108 -15.766844
v 0.344045 -1.972892 -15.345337
v 0.344045 5.027108 -15.345338
v 0.344045 -1.972892 -15.766843
v 0.344045 5.027108 -15.766844
vn -1.0000 -0.0000 -0.0000
vn -0.0000 -0.0000 -1.0000
vn 1.0000 -0.0000 -0.0000
vn -0.0000 -0.0000 1.0000
vn -0.0000 -1.0000 -0.0000
vn -0.0000 1.0000 -0.0000
vt 0.375000 0.000000
vt 0.375000 1.000000
vt 0.125000 0.750000
vt 0.625000 0.000000
vt 0.625000 1.000000
vt 0.875000 0.750000
vt 0.125000 0.500000
vt 0.375000 0.250000
vt 0.625000 0.250000
vt 0.875000 0.500000
vt 0.375000 0.750000
vt 0.625000 0.750000
vt 0.375000 0.500000
vt 0.625000 0.500000
s 0
g off
f 146/256/109 147/260/109 145/253/109
f 148/261/110 151/265/110 147/260/110
f 152/266/111 149/263/111 151/265/111
f 150/264/112 145/254/112 149/263/112
f 151/265/113 145/255/113 147/259/113
f 148/262/114 150/264/114 152/266/114
f 146/256/109 148/261/109 147/260/109
f 148/261/110 152/266/110 151/265/110
f 152/266/111 150/264/111 149/263/111
f 150/264/112 146/257/112 145/254/112
f 151/265/113 149/263/113 145/255/113
f 148/262/114 146/258/114 150/264/114
o Cube.019
v -0.093798 -1.972892 15.965378
v -0.093798 5.027108 15.965377
v -0.093798 -1.972892 15.543872
v -0.093798 5.027108 15.543871
v 0.344045 -1.972892 15.965378
v 0.344045 5.027108 15.965377
v 0.344045 -1.972892 15.543872
v 0.344045 5.027108 15.543871
vn -1.0000 -0.0000 -0.0000
vn -0.0000 -0.0000 -1.0000
vn 1.0000 -0.0000 -0.0000
vn -0.0000 -0.0000 1.0000
vn -0.0000 -1.0000 -0.0000
vn -0.0000 1.0000 -0.0000
vt 0.375000 0.000000
vt 0.375000 1.000000
vt 0.125000 0.750000
vt 0.625000 0.000000
vt 0.625000 1.000000
vt 0.875000 0.750000
vt 0.125000 0.500000
vt 0.375000 0.250000
vt 0.625000 0.250000
vt 0.875000 0.500000
vt 0.375000 0.750000
vt 0.625000 0.750000
vt 0.375000 0.500000
vt 0.625000 0.500000
s 0
g off
f 154/270/115 155/274/115 153/267/115
f 156/275/116 159/279/116 155/274/116
f 160/280/117 157/277/117 159/279/117
f 158/278/118 153/268/118 157/277/118
f 159/279/119 153/269/119 155/273/119
f 156/276/120 158/278/120 160/280/120
f 154/270/115 156/275/115 155/274/115
f 156/275/116 160/280/116 159/279/116
f 160/280/117 158/278/117 157/277/117
f 158/278/118 154/271/118 153/268/118
f 159/279/119 157/277/119 153/269/119
f 156/276/120 154/272/120 158/278/120
